<svg xmlns="http://www.w3.org/2000/svg" width="3230" height="160" viewBox="0 0 3230 160">
  <defs>
    <style>
      .cls-1 {
        fill: #c8000f;
        fill-rule: evenodd;
      }
    </style>
  </defs>
  <path id="シェイプ_1" data-name="シェイプ 1" class="cls-1" d="M156.878,7a2.4,2.4,0,0,1-.707.056h-0.312c-4.446.27-10.062,0.561-18.356,0.78L83.582,7.79h0l-53.289.046C22,7.615,16.383,7.323,11.937,7.054H11.626A2.4,2.4,0,0,1,10.919,7C9.44,13.385,3.07,36.154.769,48.266c11.31-21.58,22.689-36.821,31.35-39.905H60.874a13.178,13.178,0,0,1,4.645.809c4.734,2.228,6.283,6.613,6.7,10.208,0.5,6.615.507,15.659,0.507,30.293v50.694c0,3.335-.031,8.7-0.07,14.588-0.233,22.445-1.064,29.138-2.355,32.04-2.252,5.307-10.127,9.923-19.621,9.923h66.083c-9.494,0-17.37-4.616-19.622-9.923-1.537-3.456-2.424-12.194-2.424-46.628V49.671c0-14.656.171-23.988,1-31.118,0.551-3.4,2.19-7.322,6.569-9.383a13.184,13.184,0,0,1,4.645-.809h28.754c8.662,3.084,20.04,18.325,31.351,39.905C164.727,36.154,158.357,13.385,156.878,7Zm47.5,142.211a8.288,8.288,0,0,1-2.757,3.642A8.288,8.288,0,0,0,204.374,149.209Zm-9.442,6.657a23.585,23.585,0,0,0,4.677-1.741A23.608,23.608,0,0,1,194.932,155.866ZM205.2,137.043c0.033-1.536.062-3.115,0.087-4.67C205.258,133.928,205.229,135.507,205.2,137.043Zm0.152-9.2c0.019-1.442.034-2.793,0.047-3.988C205.382,125.054,205.367,126.405,205.348,127.847Zm0.093-8.3v-0.685c0,0.309-.006.629-0.007,0.941C205.434,119.711,205.441,119.633,205.441,119.544Zm199.408-16.986-5.523,2.413,0.22,0.5,5.523-2.413ZM287.383,146.725c-0.42,7.29-8.739,9.047-14.7,10.191H322.1c-5.965-1.144-14.338-2.554-14.7-10.191-0.264-5.531,0-14.377,0-45.323S292.27,54.865,263.822,58.751c-25.926,3.54-37.208,27.965-37.208,27.965V59.495c0-20.825.658-38.1,2.458-59.5-6.345,1.834-36.953,7.793-43.881,7.15,16.09,0.829,20.25,4.6,20.25,15.59v96.81c0,0.089-.007.167-0.007,0.256,0-.312.007-0.632,0.007-0.941,0,0-.014,2.011-0.046,5-0.013,1.2-.028,2.546-0.047,3.988s-0.04,2.972-.065,4.526-0.054,3.134-.087,4.67c-0.08,3.839-.184,7.411-0.315,9.682a8.479,8.479,0,0,1-.507,2.484,8.288,8.288,0,0,1-2.757,3.642,12.838,12.838,0,0,1-2.008,1.274,23.585,23.585,0,0,1-4.677,1.741c-1.625.439-3.263,0.764-4.754,1.05h51.7c-5.965-1.144-14.338-2.554-14.7-10.191-0.046-.955-0.089-1.993-0.13-3.094-0.161-4.4-.279-9.8-0.349-14.8-0.053-3.747-.081-7.269-0.081-9.975V106.732c0-5.669-.738-17.21,4.161-25.454s18.53-18.83,34.029-18.83c24.3,0,23.3,23.119,23.3,37.189S287.8,139.461,287.383,146.725Zm139.6-84.559c-6.817-3.176-13.454-5.316-24.543-5.089a71.169,71.169,0,0,0-23.333,3.963c-17.656,5.993-33.372,21.092-33.372,49.6,0,32.8,29.646,50.86,61.146,49.248,22.171-1.134,34.23-11.007,39.1-15.761-7.869,5-22.988,12.561-39.676,11.843-19.338-.833-40-16.377-40-48.984,0-18.036,6.869-31.924,16.076-40.379,2-1.835,8.606-7.993,16.769-8.851,7.031-.739,12.633.256,17.8,4.816a29.832,29.832,0,0,1,9.72,17.581c0.827,4.609.274,12.43-5.446,15.1-16.182,7.133-26.111,11.518-31.637,13.962l0.226,0.507,57.433-25.095a1.435,1.435,0,0,0,.893-1.786C446.9,79.387,437.941,67.273,426.981,62.166ZM2383,146.725c-0.42,7.29-8.74,9.047-14.71,10.191h49.43c-5.97-1.144-14.34-2.554-14.71-10.191-0.26-5.531,0-14.377,0-45.323s-15.13-46.537-43.57-42.651c-25.93,3.54-37.21,27.965-37.21,27.965V59.495c0-20.825.66-38.1,2.46-59.5-6.35,1.834-36.96,7.793-43.88,7.15,16.09,0.829,20.25,4.6,20.25,15.59v96.81c0,0.089-.01.167-0.01,0.256,0-.312.01-0.632,0.01-0.941,0,0-.02,2.011-0.05,5-0.01,1.2-.03,2.546-0.05,3.988s-0.04,2.972-.06,4.526-0.06,3.134-.09,4.67c-0.08,3.839-.18,7.411-0.31,9.682a8.677,8.677,0,0,1-.51,2.484,8.265,8.265,0,0,1-2.76,3.642,12.673,12.673,0,0,1-2.01,1.274,23.685,23.685,0,0,1-4.67,1.741c-1.63.439-3.27,0.764-4.76,1.05h51.7c-5.96-1.144-14.34-2.554-14.7-10.191-0.05-.955-0.09-1.993-0.13-3.094-0.16-4.4-.28-9.8-0.35-14.8-0.05-3.747-.08-7.269-0.08-9.975V106.732c0-5.669-.74-17.21,4.16-25.454s18.53-18.83,34.03-18.83c24.3,0,23.3,23.119,23.3,37.189S2383.42,139.461,2383,146.725Zm154.94,7.757c-5.59-3.678-5.18-13.5-5.18-21.921,0-13.16,1.36-38.182,1.36-48.024,0-15.2-11.43-26.5-36.67-26.944l-0.19-.07a49.21,49.21,0,0,0-5.78.057c-0.28,0-.56.012-0.85,0.012h-0.07c0.15,0,.25.026,0.39,0.028a49.021,49.021,0,0,0-19.6,5.332c-0.01,0,.01.019,0.01,0.02-5.19,2.431-10.99,6.163-13.36,11.177-3.66,7.75-.04,14.25,3.23,16.268,2.16,1.334,5.8.351,7.62-2.668s1.81-8.074.04-11.444a13.214,13.214,0,0,1-1.36-5.4c0-2.7,1.67-5.321,4.62-7.513a44.143,44.143,0,0,1,27.6-4.639c11.21,2.917,13.18,11.741,13.18,26.54q0,2.747-.03,5.595s-28.46,14.532-35.97,18.337-29.21,13.7-29.21,29.546c0,20.906,21.52,21.111,28.24,21.111a48.469,48.469,0,0,0,9.74-.823l0.08,0.014c0.13-.028.28-0.085,0.42-0.115a36.372,36.372,0,0,0,3.8-1.052c0.69-.222,1.38-0.467,2.07-0.722,0.67-.242,1.35-0.49,2.06-0.746-0.1.026-.13,0.016-0.22,0.036a117.95,117.95,0,0,0,19.56-10.452c3.44,14.078,14.58,12.943,21,12.943,3.32,0,13.06-1.46,16.93-3.226C2550.19,156.066,2542.27,157.323,2537.94,154.482Zm-60.59,3.493c-8.84-1.4-13.02-8.2-13.02-22.445,0-5.767.47-18.59,10.28-24.259,11.85-6.118,35.04-18.012,38.28-19.673-0.12,11.127-.49,24-0.49,44.555a42.868,42.868,0,0,0,.88,9.093C2509.76,147.639,2491.28,160.178,2477.35,157.975Zm-230.44-47.359c-4-3.534-12.4-8.37-24.97-14.368-10.67-5.1-17.71-9.211-21.54-12.559-4.03-3.519-6.07-7.644-6.07-12.259a16.234,16.234,0,0,1,6.83-13.354c4.22-2.956,9.9-4.381,16.9-4.381a28.792,28.792,0,0,1,13.32,2.886,29.559,29.559,0,0,1,8.62,7.38,29.732,29.732,0,0,1,5.62,9.962c0.32,0.976.61,1.7,0.84,2.251a112.979,112.979,0,0,1-.63-12.915,58.658,58.658,0,0,1,.36-5.948c0.21-2.1.33-3.434,0.49-4.231-0.99,4.224-3.41,5.115-5.27,5.115a17.648,17.648,0,0,1-5.45-1.332,54.188,54.188,0,0,0-18.28-3.608c-10.52,0-19.39,2.824-26.23,8.274-6.86,5.47-10.21,11.46-10.21,19.788a28.654,28.654,0,0,0,6.06,18.265c4.42,5.656,13.04,11.439,25.63,17.2,11.87,5.52,18.75,9.154,21.03,11.127a14.579,14.579,0,0,1,4.81,11.4c0,5.463-2.9,11.757-6.88,14.586-14.13,10.045-33.8,1.786-38.44-1.1-0.21-.127-0.4-0.225-0.56-0.326a29.972,29.972,0,0,1-11.84-18.521,38.489,38.489,0,0,0-1.39-4.909c-0.01.121-.02,0.271-0.02,0.456q0,0.909.36,6.005,0.165,2.629.17,7.124a60.258,60.258,0,0,1-.72,9.873c-0.31,1.731-.54,3.184-0.68,4.352,1.3-2.842,3.14-4.281,5.47-4.281a10.245,10.245,0,0,1,3.08.548c2.28,0.751,4.42,1.4,6.52,2.014l0.01,0.02c5.05,2.245,14.38,4.353,23.92,4.076,10.27-.3,22.18-4.944,26.81-8.624,7.29-5.777,10.83-12.879,10.83-21.719C2255.41,121.037,2252.63,115.73,2246.91,110.616Zm548.02-50.845-0.19-.06c-0.08-.021-0.15-0.049-0.23-0.07a51.858,51.858,0,0,0-18.7-1.767c-11.87.836-19.73,4.267-27.67,10-13.9,10.042-22.59,25.927-22.59,41.622,0,25.042,19.77,50.389,52.87,50.389,31.96,0,54.18-26.158,54.18-50.389C2832.6,88.025,2818.66,66.347,2794.93,59.771Zm-15.85,99.622c-17.59,0-31.85-11.326-31.85-50.436s14.26-50.436,31.85-50.436,31.84,11.327,31.84,50.436S2796.66,159.393,2779.08,159.393ZM2999.45,57.861l-2.92-.013c0.04,0,.06.009,0.09,0.013h-0.09c1.87,0.357,4.16.634,6.53,1.087,19.71,4.817,13.56,21.4,12.59,23.668l-26.76,60.892-1.87-3.863c-10.13-21-23.91-52.038-31.31-69.744-1.67-4.067-2.47-7.7,1.96-9.806a41.033,41.033,0,0,1,8.18-2.247h-42.53l-0.87-.006a0.244,0.244,0,0,1,.04.006h-6.06c5.96,1.145,11.6,1.213,15.65,10.191,0,0,11.79,24.99,11.84,25.087l-22.3,50.583c-0.44-.95-1-2.116-1.56-3.318h0c-8.03-17.242-26.99-58.716-32.64-72.215-3.73-8.925,7.33-9.91,9.5-10.328H2847.5c5.96,1.145,11.6,1.213,15.65,10.191l11.22,23.777v0.027c0.11,0.231.24,0.491,0.36,0.736l0.08,0.176v0c8.02,16.695,31.49,65.859,31.49,65.859s2.19-1.622,6.18-4.466c6.74-4.8,11.16-6.08,11.16-6.08s-1.65-3.669.64-8.872h0l19.97-45.248c6.22,14.323,29.36,64.41,29.36,64.41s4.62-3.466,9.63-6.683c5.51-3.529,7.71-3.863,7.71-3.863s-1.65-3.669.65-8.872h0s19.61-44.739,27.16-61.792c2.26-5.1,5.03-10.027,6.97-12.362,3.61-4.416,7.79-5.843,15.41-6.582a0.2,0.2,0,0,0,.02,0c0.98-.094,1.34-0.151,1.34-0.151,0.58-.061,1.15-0.122,1.73-0.186h-44.78Zm-316.44,76.983V59.495c0-20.825.66-38.1,2.46-59.5a0.014,0.014,0,0,1-.01,0v0s-0.01,0-.01,0-0.01,0-.02.006c-6.41,1.845-36.13,7.781-43.04,7.139,16.09,0.829,20.25,4.6,20.25,15.59V71.1a59.354,59.354,0,0,0-18.55-9.732c-6.82-2.157-21.02-4.362-37.17,2.756a51.845,51.845,0,0,0-30.74,47.425c0,23.364,15,48.331,49.91,48.331,8.23,0,24.46-2.348,36.82-18.723,0,0-.51,10.964.65,17.195,5.76-1.222,35.01-3.966,42.84-5.026C2686.17,153.583,2683.01,147.492,2683.01,134.844Zm-21.95,1.539c-1.81,4.3-3.9,9.424-8.08,13.558s-13.23,8.155-23.52,8c-27.54-.405-30.74-18.236-30.74-48.9,0-25.128,5.76-43.4,23.55-48.375,15.37-2.893,24.46,2.153,31.68,7.211,3.54,2.753,6.01,5.951,6.85,8.179,2.21,5.57,1.59,19.352,1.59,23.393v10.964C2662.39,122.158,2662.87,132.088,2661.06,136.383Zm-1188.1,20.533M1348.61,63.992m-4.97,92.924,177.54-49.933c0-21.444,10.04-36.756,22.24-44.193a34.648,34.648,0,0,1,19.79-4.864,41.87,41.87,0,0,1,9.29,1.539c8.01,2.763,11.53,7.779,11.6,12.13,0.13,8.813,1.48,13.771,6.6,14.175,4.93,0.387,8.94-4.91,6.19-12.032-2.05-5.3-16.17-18.144-43.67-16.347-24.52,1.6-53.32,15.093-53.32,53.248,0,32.795,26.13,50.859,58.7,49.247,22.93-1.134,33.65-11.138,38.18-15.761-8.14,5-21.51,12.561-38.77,11.843C1538.01,155.135,1521.18,139.59,1521.18,106.983ZM660.829,156.136H636.636a61.76,61.76,0,0,1-9.236-.5c-4.122-.506-10.673-5.1-12.31-8.965-1.537-3.455-2.425-12.1-2.425-46.538V87.02c0-1.828,0-8.333,8.984-8.333h25.277c13.5,0,21.913,12.566,25.422,23.32l0.28-47.425c-4.142,10.947-13.348,23.565-28.143,23.565H621.649c-5.795,0-8.984-2.458-8.984-6.923V63.984c0-34.434.888-42.963,2.425-46.419,1.649-3.887,6.337-7.369,12.451-8.965a26.8,26.8,0,0,1,4.633-.576h31.91c11.638,0,28.525,9.038,36.489,27.494-1.118-10.179-3.025-21.016-4.3-27.984l-78.017-.128c0,0.008-.02.019-0.019,0.027H569.767c9.494,0,17.371,4.616,19.622,9.923,1.291,2.9,2.121,9.6,2.354,32.041,0,0,0,63.344-.045,68.935-0.284,19.557-1.091,25.691-2.309,28.431-2.251,5.307-10.128,9.972-19.622,9.972,0,0,130.374-.041,130.559,0,1.743-6.243,4.578-18.241,7.513-30.041C694.606,151.468,676.01,156.136,660.829,156.136Zm632.851-93.97c-6.82-3.176-13.45-5.316-24.54-5.089a71.134,71.134,0,0,0-23.33,3.963c-17.66,5.993-33.38,21.092-33.38,49.6,0,32.8,29.65,50.86,61.15,49.248,22.17-1.134,34.23-11.007,39.1-15.761-7.86,5-22.98,12.561-39.67,11.843-19.34-.833-40-16.377-40-48.984,0-18.036,6.87-31.924,16.08-40.379,2-1.835,8.6-7.993,16.77-8.851,7.03-.739,12.63.256,17.8,4.816a29.843,29.843,0,0,1,9.72,17.581c0.82,4.609.27,12.43-5.45,15.1-16.18,7.133-26.11,11.518-31.64,13.962l0.23,0.507,57.43-25.095a1.44,1.44,0,0,0,.9-1.786C1313.6,79.387,1304.64,67.273,1293.68,62.166Zm416.59,0c-6.81-3.176-13.45-5.316-24.54-5.089a71.134,71.134,0,0,0-23.33,3.963c-17.66,5.993-33.37,21.092-33.37,49.6,0,32.8,29.64,50.86,61.14,49.248,22.17-1.134,34.23-11.007,39.11-15.761-7.87,5-22.99,12.561-39.68,11.843-19.34-.833-40-16.377-40-48.984,0-18.036,6.87-31.924,16.08-40.379,2-1.835,8.6-7.993,16.77-8.851,7.03-.739,12.63.256,17.8,4.816a29.843,29.843,0,0,1,9.72,17.581c0.83,4.609.27,12.43-5.45,15.1-16.18,7.133-26.11,11.518-31.63,13.962l0.22,0.507,57.44-25.095a1.434,1.434,0,0,0,.89-1.786C1730.19,79.387,1721.23,67.273,1710.27,62.166ZM924.68,146.725c-0.038-.788,0-49.085,0-49.085,0-5.45-.122-20.065-9.031-28.85-7.253-7.151-15.33-10.342-27.347-10.362-18.831-.033-30.866,15.365-34.553,20.341-1.486,2-3.927,5.594-3.927,5.594s-4.717-25.935-35.382-25.935c-27.471,0-37.345,26.827-37.345,26.827s0.007-8.2.2-13.314c0.286-4.295.6-8.638,0.982-13.238-6.345,1.834-34.094,7.792-41.022,7.149C753.34,66.681,757.5,70.447,757.5,81.443v37.416s-0.408,25.25-.559,27.866c-0.42,7.29-8.739,9.047-14.7,10.191H792.36c-5.966-1.144-14.339-2.554-14.7-10.191-0.038-.788-0.582-47.521-0.582-47.521,0-3.9-.156-10.42,1.083-14.04,3.811-11.127,18.7-27.188,36.808-23.543C834.727,65.6,832.839,89.147,832.839,97.4c0,0,0,20.793,0,21.476,0,0.163-.408,25.245-0.558,27.852-0.42,7.29-8.739,9.047-14.7,10.191h48.792c-5.965-1.144-14.338-2.554-14.7-10.191-0.038-.788-0.582-38.163-0.582-38.163,0-5.248-1.854-21.029,2.4-28.039,6.489-10.381,18.733-20.7,33.978-18.9,20.657,2.441,18.39,29.589,18.39,35.776s-0.408,46.721-.559,49.328c-0.42,7.29-8.738,9.047-14.7,10.191h48.793C933.419,155.772,925.045,154.362,924.68,146.725Zm76.44-106.049c-5.795,0-10.691-4.574-10.691-9.993,0-5.513,4.794-10,10.691-10a10.086,10.086,0,0,1,10.37,10A10.323,10.323,0,0,1,1001.12,40.676Zm8.79,106.049c-0.36-7.62-.55-20.581-0.56-27.81,0.09-18.67.38-40.847,0.46-48.276h0c0-7.216.32-10.282,1.67-13.238-6.34,1.834-35.01,7.792-41.937,7.15,16.088,0.829,20.248,4.6,20.248,15.591v38.718s-0.14,20.6-.559,27.866c-0.412,7.153-8.416,8.973-14.353,10.121-0.7.025-1.354,0.07-2.117,0.07h51.858C1018.65,155.772,1010.28,154.362,1009.91,146.725Zm142.56,0c-0.42,7.29-8.74,9.047-14.71,10.191h49.43c-5.97-1.144-14.34-2.554-14.71-10.191-0.26-5.532,0-14.378,0-45.322s-15.13-46.538-43.57-42.652c-20.68,2.824-32.02,18.9-35.77,25.306,0.04-3.445.12-9.646,0.26-12.808,0.26-3.773.52-7.562,0.86-11.59-6.34,1.834-33.2,7.793-40.13,7.149,16.08,0.829,20.25,4.593,20.25,15.579,0.05,5.573.19,25.719-.04,42.457,0,0.053.01,0.106,0.01,0.159-0.08,6.671-.23,17-0.51,21.721-0.41,7.239-8.61,9.019-14.57,10.165-0.47.006-.94,0.026-1.41,0.026h51.33c-5.96-1.144-14.33-2.554-14.7-10.191s-0.56-20.648-.56-27.866V102.092c0-2.294.06-5.419,0.11-7.472a47.026,47.026,0,0,1,.97-10.61,11.185,11.185,0,0,1,1.35-3.481c5.25-8.123,18.49-18.081,33.53-18.081,24.3,0,23.3,23.119,23.3,37.189S1152.89,139.46,1152.47,146.725Zm285.77,0c-0.42,7.29-8.74,9.047-14.71,10.191h49.43c-5.97-1.144-14.34-2.554-14.71-10.191-0.26-5.532,0-14.378,0-45.322s-15.13-46.538-43.58-42.652c-20.67,2.824-32.01,18.9-35.76,25.306,0.04-3.445.12-9.646,0.26-12.808,0.26-3.773.52-7.562,0.86-11.59-6.35,1.834-33.2,7.793-40.13,7.149,16.08,0.829,20.24,4.593,20.25,15.579,0.04,5.573.19,25.719-.05,42.457,0,0.053.01,0.106,0.01,0.159-0.07,6.671-.23,17-0.5,21.721-0.41,7.239-8.62,9.019-14.57,10.165-0.47.006-.94,0.026-1.41,0.026h51.33c-5.96-1.144-14.34-2.554-14.7-10.191s-0.56-20.648-.56-27.866V102.092c0-2.294.06-5.419,0.11-7.472a47.026,47.026,0,0,1,.97-10.61,11.185,11.185,0,0,1,1.35-3.481c5.25-8.123,18.49-18.081,33.53-18.081,24.3,0,23.29,23.119,23.29,37.189S1438.66,139.46,1438.24,146.725ZM1876.52,40.676c-5.79,0-10.69-4.574-10.69-9.993,0-5.513,4.8-10,10.69-10a10.086,10.086,0,0,1,10.37,10A10.323,10.323,0,0,1,1876.52,40.676Zm8.8,106.049c-0.37-7.62-.56-20.581-0.56-27.81,0.09-18.67.38-40.847,0.46-48.276h0c0-7.216.31-10.282,1.67-13.238-6.35,1.834-35.02,7.792-41.94,7.15,16.09,0.829,20.25,4.6,20.25,15.591v38.718s-0.14,20.6-.56,27.866c-0.41,7.153-8.42,8.973-14.36,10.121-0.7.025-1.35,0.07-2.11,0.07h51.85C1894.06,155.772,1885.68,154.362,1885.32,146.725Zm142.69,0c-0.43,7.29-8.74,9.047-14.71,10.191h49.43c-5.97-1.144-14.34-2.554-14.71-10.191-0.26-5.532,0-14.378,0-45.322s-15.13-46.538-43.58-42.652c-20.67,2.824-32.01,18.9-35.76,25.306,0.03-3.445.12-9.646,0.26-12.808,0.26-3.773.52-7.562,0.86-11.59-6.35,1.834-33.2,7.793-40.13,7.149,16.08,0.829,20.24,4.593,20.25,15.579,0.04,5.573.18,25.719-.05,42.457,0,0.053.01,0.106,0.01,0.159-0.07,6.671-.23,17-0.5,21.721-0.42,7.239-8.62,9.019-14.57,10.165-0.47.006-.94,0.026-1.41,0.026h51.33c-5.96-1.144-14.34-2.554-14.7-10.191s-0.56-20.648-.56-27.866V102.092c0-2.294.06-5.419,0.11-7.472a47.026,47.026,0,0,1,.97-10.61,11.185,11.185,0,0,1,1.35-3.481c5.25-8.123,18.49-18.081,33.53-18.081,24.29,0,23.29,23.119,23.29,37.189S2028.42,139.46,2028.01,146.725Z"/>
</svg>
